<svg width="361" height="123" viewBox="0 0 361 123" fill="none" xmlns="http://www.w3.org/2000/svg">
<path d="M230.732 11.6213C227.445 30.2573 202.181 38.6667 169.655 42.3947C106.607 49.6213 16.2466 39.2427 5.45865 51.6747C16.2493 36.9227 54.4693 33.9773 96.6053 32.7173L96.792 32.7213C153.593 30.9947 217.447 32.276 230.732 11.6213" fill="url(#paint0_linear_2_4)"/>
<path d="M355.315 29.7853C300.385 43.7346 252.704 1.57997 170.193 8.45197C149.464 10.1826 83.4747 33.1853 83.4747 33.1853C99.6853 23.2653 156.556 4.44399 169.908 2.83332C181.911 1.38532 228.339 -5.6387 283.6 10.5173C283.613 10.5173 283.613 10.5173 283.628 10.5173C288.416 11.924 293.268 13.4933 298.169 15.2626C333.649 28.044 355.315 29.7853 355.315 29.7853" fill="url(#paint1_linear_2_4)"/>
<path d="M355.315 29.7853C333.789 54.064 281.837 44.3573 238.008 42.652C224.349 42.1107 211.489 42.3427 200.58 44.6253C240.08 26.3013 282.851 31.96 314.344 34.4H314.359C332.935 35.832 347.584 36.1653 355.315 29.7853" fill="url(#paint2_linear_2_4)"/>
<path d="M41.5227 51.1947C37.9973 60.872 25.6613 60.8893 15.6387 60.696C9.48933 60.584 4.20133 60.3933 2.37067 62.3227C4.78667 53.024 19.444 50.6453 30.3027 50.4653C35.5 50.3813 39.8293 50.796 41.5227 51.1947Z" fill="url(#paint3_linear_2_4)"/>
<path d="M230.732 11.6213C227.445 30.2573 202.181 38.6667 169.655 42.3947C144.083 43.584 134.361 31.804 96.792 32.7213C153.593 30.9947 217.447 32.276 230.732 11.6213Z" fill="url(#paint4_linear_2_4)"/>
<path d="M283.6 10.5173C248.707 5.05464 218.337 0.221305 170.193 8.45197C149.464 10.1826 83.4747 33.1853 83.4747 33.1853C99.6853 23.2653 156.556 4.44399 169.908 2.83332C181.911 1.38532 228.339 -5.6387 283.6 10.5173" fill="url(#paint5_linear_2_4)"/>
<path d="M314.344 34.4C288.148 33.9227 280.441 43.412 238.008 42.6387C238.008 42.6387 238.008 42.6387 238.008 42.652C224.349 42.1107 211.489 42.3427 200.58 44.6253C240.08 26.3013 282.851 31.96 314.344 34.4Z" fill="url(#paint6_linear_2_4)"/>
<path d="M322.673 50.3053C345.228 47.556 354.851 37.9774 354.851 37.9774C357.617 49.376 353.292 58.5147 322.673 50.3053Z" fill="url(#paint7_linear_2_4)"/>
<path d="M0.530221 104.725L6.6611 75.6931H26.902L26.0906 79.5249H10.7634L8.9151 88.3155H22.5743L21.7629 92.1023H8.10366L6.2103 100.938H21.5375L20.7711 104.725H0.530221ZM23.2682 104.725L36.702 90.254L29.6244 75.6931H35.3045L40.4436 86.4673L50.0908 75.6931H55.8159L42.5624 90.254L49.8654 104.725H44.0951L38.8208 94.0858L29.0384 104.725H23.2682ZM53.8426 104.725L59.9735 75.6931H72.9114C75.0753 75.6931 76.7883 76.1139 78.0506 76.9554C79.3128 77.7969 80.1543 78.9539 80.575 80.4265C80.9958 81.8691 81.0108 83.522 80.6201 85.3853C79.989 88.2705 78.6817 90.5846 76.6982 92.3277C74.7146 94.0708 72.0399 94.9423 68.6739 94.9423H60.83L58.7563 104.725H53.8426ZM61.6414 91.0654H68.5838C70.7476 91.0654 72.3855 90.5545 73.4975 89.5327C74.6395 88.5109 75.3758 87.1284 75.7064 85.3853C76.1272 83.2816 76.067 81.7789 75.5261 80.8773C74.9851 79.9757 73.6778 79.5249 71.6041 79.5249H64.0758L61.6414 91.0654ZM80.4768 104.725L86.6077 75.6931H106.849L106.037 79.5249H90.7099L88.8617 88.3155H102.521L101.709 92.1023H88.0502L86.1569 100.938H101.484L100.718 104.725H80.4768ZM105.306 104.725L111.437 75.6931H123.203C127.32 75.6931 130.22 76.8652 131.903 79.2094C133.586 81.5235 133.872 85.2501 132.76 90.3892C131.708 95.348 129.935 98.9845 127.44 101.299C124.976 103.583 121.565 104.725 117.207 104.725H105.306ZM110.986 100.938H117.072C119.055 100.938 120.723 100.667 122.076 100.127C123.458 99.5555 124.615 98.5036 125.547 96.9709C126.479 95.4382 127.245 93.2443 127.846 90.3892C128.447 87.5342 128.688 85.3252 128.567 83.7625C128.477 82.1997 127.891 81.1027 126.809 80.4716C125.727 79.8405 123.999 79.5249 121.625 79.5249H115.539L110.986 100.938ZM134.582 104.725L140.712 75.6931H145.626L139.495 104.725H134.582ZM152.764 104.725L158.083 79.5249H148.797L149.608 75.6931H173.05L172.238 79.5249H162.997L157.677 104.725H152.764ZM170.857 104.725L176.988 75.6931H181.902L175.771 104.725H170.857ZM194.178 105.175C189.82 105.175 186.695 103.973 184.801 101.569C182.908 99.1347 182.517 95.3781 183.629 90.2991C184.741 85.0097 186.65 81.1779 189.355 78.8037C192.089 76.4295 195.831 75.2423 200.579 75.2423C204.967 75.2423 208.093 76.4295 209.956 78.8037C211.849 81.1779 212.24 85.0097 211.128 90.2991C210.016 95.3781 208.108 99.1347 205.403 101.569C202.728 103.973 198.987 105.175 194.178 105.175ZM195.08 101.028C197.965 101.028 200.339 100.202 202.202 98.5487C204.066 96.8657 205.403 94.1158 206.214 90.2991C206.785 87.6243 206.951 85.4905 206.71 83.8977C206.5 82.3049 205.824 81.1629 204.682 80.4716C203.57 79.7804 201.902 79.4348 199.678 79.4348C196.823 79.4348 194.464 80.2462 192.6 81.8691C190.767 83.4619 189.43 86.2719 188.588 90.2991C187.777 94.1158 187.852 96.8657 188.814 98.5487C189.775 100.202 191.864 101.028 195.08 101.028ZM212.943 104.725L219.074 75.6931H223.402L234.041 97.0611L238.549 75.6931H243.417L237.287 104.725H232.959L222.365 83.4018L217.857 104.725H212.943Z" fill="white"/>
<path d="M242.154 104.725L259.374 75.6931H264.874L269.743 104.725H264.874L263.567 97.2414H251.891L247.428 104.725H242.154ZM253.469 93.4547H263.567L261.313 80.1561L253.469 93.4547ZM284.857 105.175C282.302 105.175 280.169 104.71 278.455 103.778C276.772 102.846 275.585 101.539 274.894 99.856C274.233 98.143 274.143 96.1745 274.624 93.9505L278.501 75.6931H283.414L279.582 93.7702C279.042 96.2947 279.192 98.143 280.033 99.3151C280.875 100.457 282.783 101.028 285.758 101.028C288.343 101.028 290.387 100.457 291.889 99.3151C293.392 98.173 294.414 96.3248 294.955 93.7702L298.787 75.6931H303.655L299.778 93.9505C299.027 97.587 297.434 100.367 295 102.29C292.596 104.214 289.215 105.175 284.857 105.175ZM310.5 104.725L315.819 79.5249H306.533L307.344 75.6931H330.786L329.974 79.5249H320.733L315.413 104.725H310.5ZM340.82 105.175C336.462 105.175 333.337 103.973 331.443 101.569C329.55 99.1347 329.159 95.3781 330.271 90.2991C331.383 85.0097 333.292 81.1779 335.997 78.8037C338.731 76.4295 342.473 75.2423 347.221 75.2423C351.609 75.2423 354.735 76.4295 356.598 78.8037C358.491 81.1779 358.882 85.0097 357.77 90.2991C356.658 95.3781 354.75 99.1347 352.045 101.569C349.37 103.973 345.629 105.175 340.82 105.175ZM341.722 101.028C344.607 101.028 346.981 100.202 348.844 98.5487C350.708 96.8657 352.045 94.1158 352.856 90.2991C353.428 87.6243 353.593 85.4905 353.352 83.8977C353.142 82.3049 352.466 81.1629 351.324 80.4716C350.212 79.7804 348.544 79.4348 346.32 79.4348C343.465 79.4348 341.106 80.2462 339.242 81.8691C337.409 83.4619 336.072 86.2719 335.23 90.2991C334.419 94.1158 334.494 96.8657 335.456 98.5487C336.417 100.202 338.506 101.028 341.722 101.028Z" fill="#4CB9ED"/>
<defs>
<linearGradient id="paint0_linear_2_4" x1="5.85998" y1="29.6053" x2="230.329" y2="33.6911" gradientUnits="userSpaceOnUse">
<stop stop-color="#4CB9ED"/>
<stop offset="1" stop-color="#2B2D70"/>
</linearGradient>
<linearGradient id="paint1_linear_2_4" x1="193.351" y1="23.4746" x2="343.591" y2="54.6488" gradientUnits="userSpaceOnUse">
<stop stop-color="#4CB9ED"/>
<stop offset="1" stop-color="#2B2D70"/>
</linearGradient>
<linearGradient id="paint2_linear_2_4" x1="255.572" y1="40.384" x2="352.034" y2="35.0082" gradientUnits="userSpaceOnUse">
<stop stop-color="#4CB9ED"/>
<stop offset="1" stop-color="#2B2D70"/>
</linearGradient>
<linearGradient id="paint3_linear_2_4" x1="21.4293" y1="51.9093" x2="22.4819" y2="61.7877" gradientUnits="userSpaceOnUse">
<stop stop-color="white"/>
<stop offset="1" stop-color="#595C5F"/>
</linearGradient>
<linearGradient id="paint4_linear_2_4" x1="96.9293" y1="25.2093" x2="230.44" y2="27.6395" gradientUnits="userSpaceOnUse">
<stop stop-color="#4CB9ED"/>
<stop offset="1" stop-color="#2B2D70"/>
</linearGradient>
<linearGradient id="paint5_linear_2_4" x1="83.7973" y1="15.4653" x2="283.444" y2="19.0993" gradientUnits="userSpaceOnUse">
<stop stop-color="#4CB9ED"/>
<stop offset="1" stop-color="#2B2D70"/>
</linearGradient>
<linearGradient id="paint6_linear_2_4" x1="246.524" y1="37.2427" x2="308.387" y2="50.079" gradientUnits="userSpaceOnUse">
<stop stop-color="#4CB9ED"/>
<stop offset="1" stop-color="#2B2D70"/>
</linearGradient>
<linearGradient id="paint7_linear_2_4" x1="322.585" y1="46.28" x2="355.609" y2="45.5668" gradientUnits="userSpaceOnUse">
<stop stop-color="#F46772"/>
<stop offset="1" stop-color="#B81A33"/>
</linearGradient>
</defs>
</svg>
